<svg xmlns="http://www.w3.org/2000/svg" viewBox="0 0 64 80" x="0px" y="0px">
<path d="M52.474,23.851a5.046,5.046,0,0,0-3.491.979,5.127,5.127,0,0,0-4.509-4.979,5.029,5.029,0,0,0-3.837,1.264,4.951,4.951,0,0,0-7.651-2.287V10.172a5.133,5.133,0,0,0-4.512-5.149A5,5,0,0,0,22.986,10V28a1,1,0,0,0,2,0V10a3.006,3.006,0,0,1,.983-2.221,2.966,2.966,0,0,1,2.315-.764,3.117,3.117,0,0,1,2.7,3.157V35a1,1,0,1,0,2,0V22.828a3.006,3.006,0,0,1,.983-2.221,2.966,2.966,0,0,1,2.315-.765A3.119,3.119,0,0,1,38.986,23V35a1,1,0,0,0,2,0V24.828a3.006,3.006,0,0,1,.983-2.221,2.957,2.957,0,0,1,2.315-.765A3.119,3.119,0,0,1,46.986,25V35a1,1,0,0,0,2,0V28.828a3.006,3.006,0,0,1,.983-2.221,2.959,2.959,0,0,1,2.315-.765A3.119,3.119,0,0,1,54.986,29V43a19.022,19.022,0,0,1-19,19h-.341a19.036,19.036,0,0,1-16.524-9.621L9.428,35.3a3.224,3.224,0,0,1,5.36-3.554L23.2,42.612A1,1,0,0,0,24.986,42V32a1,1,0,0,0-2,0v7.074l-6.617-8.55a5.224,5.224,0,0,0-8.682,5.762l9.7,17.08A21.038,21.038,0,0,0,35.645,64h.341a21.024,21.024,0,0,0,21-21V29A5.133,5.133,0,0,0,52.474,23.851Z"/>
<path d="M19.987,17.963a1,1,0,0,0,.8-1.6A8.914,8.914,0,0,1,19,11a9,9,0,1,1,17.278,3.535,1,1,0,0,0,1.839.785,11,11,0,1,0-18.933,2.241A1,1,0,0,0,19.987,17.963Z"/></svg>