<svg width="251" height="92" viewBox="0 0 251 92" fill="none" xmlns="http://www.w3.org/2000/svg">
<path d="M37.14 91.408C15.636 91.408 0.404 77.84 0.404 52.752V0.399994H7.06V52.112C7.06 73.488 18.324 85.392 37.396 85.392C55.444 85.392 67.22 74.384 67.22 52.752V0.399994H73.876V51.984C73.876 77.584 58.9 91.408 37.14 91.408ZM99.062 90V0.399994H136.694C147.83 0.399994 156.406 3.728 161.91 9.23199C166.134 13.456 168.694 19.344 168.694 25.872V26.128C168.694 41.104 157.43 49.68 142.454 51.728L172.022 90H163.574L135.03 52.88H105.718V90H99.062ZM105.718 46.864H135.926C150.902 46.864 162.038 39.184 162.038 26.384V26.128C162.038 13.968 152.694 6.544 136.31 6.544H105.718V46.864ZM191.562 90V0.399994H198.218V83.856H250.826V90H191.562Z" fill="black"/>
</svg>
